<mxfile host="Electron" agent="Mozilla/5.0 (Windows NT 10.0; Win64; x64) AppleWebKit/537.36 (KHTML, like Gecko) draw.io/26.2.15 Chrome/134.0.6998.205 Electron/35.2.1 Safari/537.36" version="26.2.15">
  <diagram name="ページ1" id="b__0PbF_XR3CwQsX9njZ">
    <mxGraphModel dx="1383" dy="180" grid="0" gridSize="10" guides="1" tooltips="1" connect="1" arrows="1" fold="1" page="0" pageScale="1" pageWidth="827" pageHeight="1169" math="0" shadow="0">
      <root>
        <mxCell id="0" />
        <mxCell id="1" parent="0" />
        <mxCell id="ARfdO1FI16vt_hvNH6ej-5" style="edgeStyle=orthogonalEdgeStyle;rounded=0;orthogonalLoop=1;jettySize=auto;html=1;exitX=1;exitY=0.5;exitDx=0;exitDy=0;" parent="1" source="lrXVtiZ8gmpqPrmXc3up-1" target="ARfdO1FI16vt_hvNH6ej-4" edge="1">
          <mxGeometry relative="1" as="geometry">
            <mxPoint x="-2" y="550" as="sourcePoint" />
          </mxGeometry>
        </mxCell>
        <mxCell id="ARfdO1FI16vt_hvNH6ej-9" value="automation&lt;div&gt;毎日実行&lt;/div&gt;" style="edgeLabel;html=1;align=center;verticalAlign=middle;resizable=0;points=[];" parent="ARfdO1FI16vt_hvNH6ej-5" vertex="1" connectable="0">
          <mxGeometry x="0.0417" y="-1" relative="1" as="geometry">
            <mxPoint as="offset" />
          </mxGeometry>
        </mxCell>
        <mxCell id="ARfdO1FI16vt_hvNH6ej-7" style="edgeStyle=orthogonalEdgeStyle;rounded=0;orthogonalLoop=1;jettySize=auto;html=1;entryX=0;entryY=0.5;entryDx=0;entryDy=0;" parent="1" source="ARfdO1FI16vt_hvNH6ej-4" target="ARfdO1FI16vt_hvNH6ej-6" edge="1">
          <mxGeometry relative="1" as="geometry" />
        </mxCell>
        <mxCell id="ARfdO1FI16vt_hvNH6ej-8" value="webhook" style="edgeLabel;html=1;align=center;verticalAlign=middle;resizable=0;points=[];" parent="ARfdO1FI16vt_hvNH6ej-7" vertex="1" connectable="0">
          <mxGeometry x="-0.017" relative="1" as="geometry">
            <mxPoint as="offset" />
          </mxGeometry>
        </mxCell>
        <mxCell id="ARfdO1FI16vt_hvNH6ej-4" value="&lt;div&gt;Webhookを送信&lt;/div&gt;" style="rounded=0;whiteSpace=wrap;html=1;" parent="1" vertex="1">
          <mxGeometry x="120" y="520" width="120" height="60" as="geometry" />
        </mxCell>
        <mxCell id="ARfdO1FI16vt_hvNH6ej-11" style="edgeStyle=orthogonalEdgeStyle;rounded=0;orthogonalLoop=1;jettySize=auto;html=1;" parent="1" source="ARfdO1FI16vt_hvNH6ej-6" target="ARfdO1FI16vt_hvNH6ej-10" edge="1">
          <mxGeometry relative="1" as="geometry" />
        </mxCell>
        <mxCell id="ARfdO1FI16vt_hvNH6ej-12" value="Notion API" style="edgeLabel;html=1;align=center;verticalAlign=middle;resizable=0;points=[];" parent="ARfdO1FI16vt_hvNH6ej-11" vertex="1" connectable="0">
          <mxGeometry x="-0.002" relative="1" as="geometry">
            <mxPoint as="offset" />
          </mxGeometry>
        </mxCell>
        <mxCell id="ARfdO1FI16vt_hvNH6ej-6" value="DB_TODOSに&lt;div&gt;DB_HABITSの&lt;/div&gt;&lt;div&gt;ページを追加&lt;/div&gt;" style="rounded=0;whiteSpace=wrap;html=1;" parent="1" vertex="1">
          <mxGeometry x="373" y="520" width="120" height="60" as="geometry" />
        </mxCell>
        <mxCell id="lrXVtiZ8gmpqPrmXc3up-4" style="edgeStyle=orthogonalEdgeStyle;rounded=0;orthogonalLoop=1;jettySize=auto;html=1;entryX=1;entryY=0.5;entryDx=0;entryDy=0;" edge="1" parent="1" source="ARfdO1FI16vt_hvNH6ej-10" target="lrXVtiZ8gmpqPrmXc3up-3">
          <mxGeometry relative="1" as="geometry" />
        </mxCell>
        <mxCell id="ARfdO1FI16vt_hvNH6ej-10" value="Notionサーバ" style="rounded=0;whiteSpace=wrap;html=1;" parent="1" vertex="1">
          <mxGeometry x="373" y="666" width="120" height="60" as="geometry" />
        </mxCell>
        <mxCell id="lrXVtiZ8gmpqPrmXc3up-1" value="DB_HABITS" style="rounded=0;whiteSpace=wrap;html=1;" vertex="1" parent="1">
          <mxGeometry x="-117" y="520" width="120" height="60" as="geometry" />
        </mxCell>
        <mxCell id="lrXVtiZ8gmpqPrmXc3up-3" value="DB_TODOS" style="rounded=0;whiteSpace=wrap;html=1;" vertex="1" parent="1">
          <mxGeometry x="-120" y="666" width="120" height="60" as="geometry" />
        </mxCell>
        <mxCell id="lrXVtiZ8gmpqPrmXc3up-6" value="" style="rounded=0;whiteSpace=wrap;html=1;dashed=1;fillColor=none;strokeColor=#FF0000;" vertex="1" parent="1">
          <mxGeometry x="362" y="510" width="140" height="80" as="geometry" />
        </mxCell>
        <mxCell id="lrXVtiZ8gmpqPrmXc3up-7" value="&lt;font style=&quot;color: rgb(255, 0, 0);&quot;&gt;実装部分&lt;/font&gt;" style="text;html=1;align=center;verticalAlign=middle;resizable=0;points=[];autosize=1;strokeColor=none;fillColor=none;" vertex="1" parent="1">
          <mxGeometry x="338" y="484" width="66" height="26" as="geometry" />
        </mxCell>
      </root>
    </mxGraphModel>
  </diagram>
</mxfile>
